<mxfile host="65bd71144e">
    <diagram id="-BH8OcxjieSGsIvLVNXB" name="Page-1">
        <mxGraphModel dx="1366" dy="3825" grid="1" gridSize="10" guides="1" tooltips="1" connect="1" arrows="1" fold="1" page="1" pageScale="1" pageWidth="827" pageHeight="1169" math="0" shadow="0">
            <root>
                <mxCell id="0"/>
                <mxCell id="1" parent="0"/>
                <mxCell id="_wlg6yeGCy82qZjoEV7s-1" value="" style="rounded=0;whiteSpace=wrap;html=1;" parent="1" vertex="1">
                    <mxGeometry x="70" y="280" width="270" height="470" as="geometry"/>
                </mxCell>
                <mxCell id="_wlg6yeGCy82qZjoEV7s-4" value="Host 04&lt;br&gt;(192.168.0.4)" style="whiteSpace=wrap;html=1;aspect=fixed;fontSize=20;" parent="1" vertex="1">
                    <mxGeometry x="90" y="320" width="120" height="120" as="geometry"/>
                </mxCell>
                <mxCell id="_wlg6yeGCy82qZjoEV7s-5" value="sw0p2" style="rounded=0;whiteSpace=wrap;html=1;fontSize=20;" parent="1" vertex="1">
                    <mxGeometry x="270" y="320" width="60" height="80" as="geometry"/>
                </mxCell>
                <mxCell id="_wlg6yeGCy82qZjoEV7s-6" value="sw0p3" style="rounded=0;whiteSpace=wrap;html=1;fontSize=20;" parent="1" vertex="1">
                    <mxGeometry x="270" y="430" width="60" height="80" as="geometry"/>
                </mxCell>
                <mxCell id="_wlg6yeGCy82qZjoEV7s-7" value="sw0p4" style="rounded=0;whiteSpace=wrap;html=1;fontSize=20;" parent="1" vertex="1">
                    <mxGeometry x="270" y="544.5" width="60" height="80" as="geometry"/>
                </mxCell>
                <mxCell id="_wlg6yeGCy82qZjoEV7s-8" value="&lt;span&gt;sw0p5&lt;/span&gt;" style="rounded=0;whiteSpace=wrap;html=1;fontSize=20;" parent="1" vertex="1">
                    <mxGeometry x="270" y="650" width="60" height="80" as="geometry"/>
                </mxCell>
                <mxCell id="_wlg6yeGCy82qZjoEV7s-9" value="sw0ep" style="rounded=0;whiteSpace=wrap;html=1;fontSize=20;" parent="1" vertex="1">
                    <mxGeometry x="120" y="410" width="60" height="80" as="geometry"/>
                </mxCell>
                <mxCell id="_wlg6yeGCy82qZjoEV7s-16" style="edgeStyle=orthogonalEdgeStyle;rounded=0;orthogonalLoop=1;jettySize=auto;html=1;entryX=0;entryY=0.5;entryDx=0;entryDy=0;fontSize=20;startArrow=classic;startFill=1;" parent="1" source="_wlg6yeGCy82qZjoEV7s-11" target="_wlg6yeGCy82qZjoEV7s-7" edge="1">
                    <mxGeometry relative="1" as="geometry"/>
                </mxCell>
                <mxCell id="_wlg6yeGCy82qZjoEV7s-17" style="edgeStyle=orthogonalEdgeStyle;rounded=0;orthogonalLoop=1;jettySize=auto;html=1;entryX=0;entryY=0.5;entryDx=0;entryDy=0;fontSize=20;startArrow=classic;startFill=1;" parent="1" source="_wlg6yeGCy82qZjoEV7s-11" target="_wlg6yeGCy82qZjoEV7s-6" edge="1">
                    <mxGeometry relative="1" as="geometry"/>
                </mxCell>
                <mxCell id="_wlg6yeGCy82qZjoEV7s-18" style="edgeStyle=orthogonalEdgeStyle;rounded=0;orthogonalLoop=1;jettySize=auto;html=1;entryX=0;entryY=0.5;entryDx=0;entryDy=0;fontSize=20;startArrow=classic;startFill=1;" parent="1" source="_wlg6yeGCy82qZjoEV7s-11" target="_wlg6yeGCy82qZjoEV7s-5" edge="1">
                    <mxGeometry relative="1" as="geometry"/>
                </mxCell>
                <mxCell id="p7_vZT_z20xoLqCwWWB2-5" style="edgeStyle=orthogonalEdgeStyle;rounded=0;orthogonalLoop=1;jettySize=auto;html=1;entryX=0;entryY=0.5;entryDx=0;entryDy=0;startArrow=classic;startFill=1;strokeColor=#000000;" parent="1" source="_wlg6yeGCy82qZjoEV7s-11" target="_wlg6yeGCy82qZjoEV7s-8" edge="1">
                    <mxGeometry relative="1" as="geometry"/>
                </mxCell>
                <mxCell id="_wlg6yeGCy82qZjoEV7s-11" value="&lt;span&gt;sw0p1&lt;/span&gt;" style="rounded=0;whiteSpace=wrap;html=1;fontSize=20;" parent="1" vertex="1">
                    <mxGeometry x="120" y="580" width="60" height="80" as="geometry"/>
                </mxCell>
                <mxCell id="_wlg6yeGCy82qZjoEV7s-50" value="" style="rounded=0;whiteSpace=wrap;html=1;" parent="1" vertex="1">
                    <mxGeometry x="710" y="280" width="270" height="470" as="geometry"/>
                </mxCell>
                <mxCell id="_wlg6yeGCy82qZjoEV7s-51" value="Host 03&lt;br&gt;(192.168.0.3)" style="whiteSpace=wrap;html=1;aspect=fixed;fontSize=20;" parent="1" vertex="1">
                    <mxGeometry x="730" y="320" width="120" height="120" as="geometry"/>
                </mxCell>
                <mxCell id="_wlg6yeGCy82qZjoEV7s-52" value="sw0p2" style="rounded=0;whiteSpace=wrap;html=1;fontSize=20;" parent="1" vertex="1">
                    <mxGeometry x="910" y="320" width="60" height="80" as="geometry"/>
                </mxCell>
                <mxCell id="_wlg6yeGCy82qZjoEV7s-53" value="sw0p3" style="rounded=0;whiteSpace=wrap;html=1;fontSize=20;" parent="1" vertex="1">
                    <mxGeometry x="910" y="430" width="60" height="80" as="geometry"/>
                </mxCell>
                <mxCell id="_wlg6yeGCy82qZjoEV7s-54" value="sw0p4" style="rounded=0;whiteSpace=wrap;html=1;fontSize=20;" parent="1" vertex="1">
                    <mxGeometry x="910" y="544.5" width="60" height="80" as="geometry"/>
                </mxCell>
                <mxCell id="_wlg6yeGCy82qZjoEV7s-55" value="sw0p5" style="rounded=0;whiteSpace=wrap;html=1;fontSize=20;" parent="1" vertex="1">
                    <mxGeometry x="910" y="650" width="60" height="80" as="geometry"/>
                </mxCell>
                <mxCell id="_wlg6yeGCy82qZjoEV7s-57" value="sw0ep" style="rounded=0;whiteSpace=wrap;html=1;fontSize=20;" parent="1" vertex="1">
                    <mxGeometry x="760" y="410" width="60" height="80" as="geometry"/>
                </mxCell>
                <mxCell id="_wlg6yeGCy82qZjoEV7s-59" style="edgeStyle=orthogonalEdgeStyle;rounded=0;orthogonalLoop=1;jettySize=auto;html=1;entryX=0;entryY=0.5;entryDx=0;entryDy=0;fontSize=20;startArrow=classic;startFill=1;strokeColor=#000000;" parent="1" source="_wlg6yeGCy82qZjoEV7s-62" target="_wlg6yeGCy82qZjoEV7s-54" edge="1">
                    <mxGeometry relative="1" as="geometry"/>
                </mxCell>
                <mxCell id="_wlg6yeGCy82qZjoEV7s-60" style="edgeStyle=orthogonalEdgeStyle;rounded=0;orthogonalLoop=1;jettySize=auto;html=1;entryX=0;entryY=0.5;entryDx=0;entryDy=0;fontSize=20;startArrow=classic;startFill=1;" parent="1" source="_wlg6yeGCy82qZjoEV7s-62" target="_wlg6yeGCy82qZjoEV7s-53" edge="1">
                    <mxGeometry relative="1" as="geometry"/>
                </mxCell>
                <mxCell id="_wlg6yeGCy82qZjoEV7s-61" style="edgeStyle=orthogonalEdgeStyle;rounded=0;orthogonalLoop=1;jettySize=auto;html=1;entryX=0;entryY=0.5;entryDx=0;entryDy=0;fontSize=20;startArrow=classic;startFill=1;" parent="1" source="_wlg6yeGCy82qZjoEV7s-62" target="_wlg6yeGCy82qZjoEV7s-52" edge="1">
                    <mxGeometry relative="1" as="geometry"/>
                </mxCell>
                <mxCell id="p7_vZT_z20xoLqCwWWB2-7" style="edgeStyle=orthogonalEdgeStyle;rounded=0;orthogonalLoop=1;jettySize=auto;html=1;entryX=0;entryY=0.5;entryDx=0;entryDy=0;startArrow=classic;startFill=1;strokeColor=#000000;" parent="1" source="_wlg6yeGCy82qZjoEV7s-62" target="_wlg6yeGCy82qZjoEV7s-55" edge="1">
                    <mxGeometry relative="1" as="geometry"/>
                </mxCell>
                <mxCell id="_wlg6yeGCy82qZjoEV7s-62" value="&lt;span&gt;sw0p1&lt;/span&gt;" style="rounded=0;whiteSpace=wrap;html=1;fontSize=20;" parent="1" vertex="1">
                    <mxGeometry x="761" y="580" width="60" height="80" as="geometry"/>
                </mxCell>
                <mxCell id="_wlg6yeGCy82qZjoEV7s-69" style="edgeStyle=orthogonalEdgeStyle;rounded=0;orthogonalLoop=1;jettySize=auto;html=1;fontSize=20;startArrow=classic;startFill=1;entryX=1;entryY=0.5;entryDx=0;entryDy=0;" parent="1" source="_wlg6yeGCy82qZjoEV7s-67" target="_wlg6yeGCy82qZjoEV7s-5" edge="1">
                    <mxGeometry relative="1" as="geometry">
                        <Array as="points">
                            <mxPoint x="430" y="50"/>
                            <mxPoint x="430" y="360"/>
                        </Array>
                    </mxGeometry>
                </mxCell>
                <mxCell id="6" style="edgeStyle=none;html=1;entryX=0.5;entryY=0;entryDx=0;entryDy=0;exitX=0.13;exitY=0.999;exitDx=0;exitDy=0;exitPerimeter=0;dashed=1;" parent="1" source="410AewlM3kjC0YQQjY2p-10" target="_wlg6yeGCy82qZjoEV7s-4" edge="1">
                    <mxGeometry relative="1" as="geometry">
                        <Array as="points">
                            <mxPoint x="795" y="200"/>
                            <mxPoint x="150" y="200"/>
                        </Array>
                    </mxGeometry>
                </mxCell>
                <mxCell id="7" style="edgeStyle=none;html=1;entryX=0.421;entryY=0.004;entryDx=0;entryDy=0;entryPerimeter=0;dashed=1;exitX=0.25;exitY=1;exitDx=0;exitDy=0;" parent="1" source="410AewlM3kjC0YQQjY2p-10" target="_wlg6yeGCy82qZjoEV7s-51" edge="1">
                    <mxGeometry relative="1" as="geometry">
                        <Array as="points">
                            <mxPoint x="828" y="210"/>
                            <mxPoint x="781" y="210"/>
                        </Array>
                    </mxGeometry>
                </mxCell>
                <mxCell id="_wlg6yeGCy82qZjoEV7s-67" value="Raspberry Pi Zelin&lt;br&gt;(192.168.0.12)" style="rounded=0;whiteSpace=wrap;html=1;fontSize=20;" parent="1" vertex="1">
                    <mxGeometry x="70" y="-110" width="270" height="220" as="geometry"/>
                </mxCell>
                <mxCell id="410AewlM3kjC0YQQjY2p-2" style="edgeStyle=orthogonalEdgeStyle;rounded=0;orthogonalLoop=1;jettySize=auto;html=1;entryX=1;entryY=0.5;entryDx=0;entryDy=0;startArrow=classic;startFill=1;" parent="1" source="_wlg6yeGCy82qZjoEV7s-68" target="_wlg6yeGCy82qZjoEV7s-6" edge="1">
                    <mxGeometry relative="1" as="geometry">
                        <Array as="points">
                            <mxPoint x="580" y="-260"/>
                            <mxPoint x="580" y="470"/>
                        </Array>
                    </mxGeometry>
                </mxCell>
                <mxCell id="_wlg6yeGCy82qZjoEV7s-68" value="Raspberry Pi Jiachen&lt;br&gt;(192.168.0.13)" style="rounded=0;whiteSpace=wrap;html=1;fontSize=20;" parent="1" vertex="1">
                    <mxGeometry x="70" y="-420" width="270" height="220" as="geometry"/>
                </mxCell>
                <mxCell id="_wlg6yeGCy82qZjoEV7s-75" value="Vlan 2" style="text;strokeColor=none;fillColor=none;align=left;verticalAlign=middle;spacingLeft=4;spacingRight=4;overflow=hidden;points=[[0,0.5],[1,0.5]];portConstraint=eastwest;rotatable=0;fontSize=20;" parent="1" vertex="1">
                    <mxGeometry x="350" y="10" width="80" height="30" as="geometry"/>
                </mxCell>
                <mxCell id="p7_vZT_z20xoLqCwWWB2-2" style="edgeStyle=orthogonalEdgeStyle;rounded=0;orthogonalLoop=1;jettySize=auto;html=1;entryX=0.5;entryY=1;entryDx=0;entryDy=0;startArrow=classic;startFill=1;" parent="1" source="_wlg6yeGCy82qZjoEV7s-8" target="_wlg6yeGCy82qZjoEV7s-55" edge="1">
                    <mxGeometry relative="1" as="geometry">
                        <Array as="points">
                            <mxPoint x="300" y="840"/>
                            <mxPoint x="940" y="840"/>
                        </Array>
                    </mxGeometry>
                </mxCell>
                <mxCell id="410AewlM3kjC0YQQjY2p-3" value="Vlan 3" style="text;strokeColor=none;fillColor=none;align=left;verticalAlign=middle;spacingLeft=4;spacingRight=4;overflow=hidden;points=[[0,0.5],[1,0.5]];portConstraint=eastwest;rotatable=0;fontSize=20;" parent="1" vertex="1">
                    <mxGeometry x="350" y="-300" width="80" height="30" as="geometry"/>
                </mxCell>
                <mxCell id="410AewlM3kjC0YQQjY2p-4" value="eth0" style="rounded=0;whiteSpace=wrap;html=1;fontSize=20;" parent="1" vertex="1">
                    <mxGeometry x="280" y="-290" width="60" height="80" as="geometry"/>
                </mxCell>
                <mxCell id="410AewlM3kjC0YQQjY2p-5" value="eth0" style="rounded=0;whiteSpace=wrap;html=1;fontSize=20;" parent="1" vertex="1">
                    <mxGeometry x="280" y="10" width="60" height="80" as="geometry"/>
                </mxCell>
                <mxCell id="410AewlM3kjC0YQQjY2p-6" value="Vlan 3" style="text;strokeColor=none;fillColor=none;align=left;verticalAlign=middle;spacingLeft=4;spacingRight=4;overflow=hidden;points=[[0,0.5],[1,0.5]];portConstraint=eastwest;rotatable=0;fontSize=20;" parent="1" vertex="1">
                    <mxGeometry x="340" y="435" width="80" height="30" as="geometry"/>
                </mxCell>
                <mxCell id="410AewlM3kjC0YQQjY2p-7" value="Vlan 2" style="text;strokeColor=none;fillColor=none;align=left;verticalAlign=middle;spacingLeft=4;spacingRight=4;overflow=hidden;points=[[0,0.5],[1,0.5]];portConstraint=eastwest;rotatable=0;fontSize=20;" parent="1" vertex="1">
                    <mxGeometry x="350" y="320" width="80" height="30" as="geometry"/>
                </mxCell>
                <mxCell id="410AewlM3kjC0YQQjY2p-10" value="Desktop Chuanyu&lt;br&gt;(192.168.0.10)" style="rounded=0;whiteSpace=wrap;html=1;fontSize=20;" parent="1" vertex="1">
                    <mxGeometry x="760" y="-110" width="270" height="220" as="geometry"/>
                </mxCell>
                <mxCell id="410AewlM3kjC0YQQjY2p-11" value="eth0" style="rounded=0;whiteSpace=wrap;html=1;fontSize=20;" parent="1" vertex="1">
                    <mxGeometry x="970" y="20" width="60" height="80" as="geometry"/>
                </mxCell>
                <mxCell id="410AewlM3kjC0YQQjY2p-12" style="edgeStyle=orthogonalEdgeStyle;rounded=0;orthogonalLoop=1;jettySize=auto;html=1;fontSize=20;startArrow=classic;startFill=1;entryX=1;entryY=0.375;entryDx=0;entryDy=0;entryPerimeter=0;" parent="1" target="_wlg6yeGCy82qZjoEV7s-52" edge="1">
                    <mxGeometry relative="1" as="geometry">
                        <Array as="points">
                            <mxPoint x="1120" y="40"/>
                            <mxPoint x="1120" y="350"/>
                        </Array>
                        <mxPoint x="1030" y="40" as="sourcePoint"/>
                        <mxPoint x="1020" y="350" as="targetPoint"/>
                    </mxGeometry>
                </mxCell>
                <mxCell id="410AewlM3kjC0YQQjY2p-15" value="Vlan 2" style="text;strokeColor=none;fillColor=none;align=left;verticalAlign=middle;spacingLeft=4;spacingRight=4;overflow=hidden;points=[[0,0.5],[1,0.5]];portConstraint=eastwest;rotatable=0;fontSize=20;" parent="1" vertex="1">
                    <mxGeometry x="1040" width="80" height="30" as="geometry"/>
                </mxCell>
                <mxCell id="410AewlM3kjC0YQQjY2p-16" value="Vlan 2" style="text;strokeColor=none;fillColor=none;align=left;verticalAlign=middle;spacingLeft=4;spacingRight=4;overflow=hidden;points=[[0,0.5],[1,0.5]];portConstraint=eastwest;rotatable=0;fontSize=20;" parent="1" vertex="1">
                    <mxGeometry x="990" y="310" width="80" height="30" as="geometry"/>
                </mxCell>
                <mxCell id="410AewlM3kjC0YQQjY2p-22" style="edgeStyle=orthogonalEdgeStyle;rounded=0;orthogonalLoop=1;jettySize=auto;html=1;entryX=0.5;entryY=1;entryDx=0;entryDy=0;startArrow=classic;startFill=1;" parent="1" edge="1">
                    <mxGeometry relative="1" as="geometry">
                        <Array as="points">
                            <mxPoint x="310" y="850"/>
                            <mxPoint x="950" y="850"/>
                        </Array>
                        <mxPoint x="310" y="740" as="sourcePoint"/>
                        <mxPoint x="950" y="740" as="targetPoint"/>
                    </mxGeometry>
                </mxCell>
                <mxCell id="410AewlM3kjC0YQQjY2p-24" value="Vlan 2" style="text;strokeColor=none;fillColor=none;align=left;verticalAlign=middle;spacingLeft=4;spacingRight=4;overflow=hidden;points=[[0,0.5],[1,0.5]];portConstraint=eastwest;rotatable=0;fontSize=20;" parent="1" vertex="1">
                    <mxGeometry x="980" y="660" width="80" height="30" as="geometry"/>
                </mxCell>
                <mxCell id="410AewlM3kjC0YQQjY2p-25" value="Vlan 3" style="text;strokeColor=none;fillColor=none;align=left;verticalAlign=middle;spacingLeft=4;spacingRight=4;overflow=hidden;points=[[0,0.5],[1,0.5]];portConstraint=eastwest;rotatable=0;fontSize=20;" parent="1" vertex="1">
                    <mxGeometry x="980" y="690" width="80" height="30" as="geometry"/>
                </mxCell>
                <mxCell id="410AewlM3kjC0YQQjY2p-28" value="Vlan 3" style="text;strokeColor=none;fillColor=none;align=left;verticalAlign=middle;spacingLeft=4;spacingRight=4;overflow=hidden;points=[[0,0.5],[1,0.5]];portConstraint=eastwest;rotatable=0;fontSize=20;" parent="1" vertex="1">
                    <mxGeometry x="340" y="675" width="80" height="30" as="geometry"/>
                </mxCell>
                <mxCell id="410AewlM3kjC0YQQjY2p-29" value="Vlan 2" style="text;strokeColor=none;fillColor=none;align=left;verticalAlign=middle;spacingLeft=4;spacingRight=4;overflow=hidden;points=[[0,0.5],[1,0.5]];portConstraint=eastwest;rotatable=0;fontSize=20;" parent="1" vertex="1">
                    <mxGeometry x="340" y="650" width="80" height="30" as="geometry"/>
                </mxCell>
                <mxCell id="410AewlM3kjC0YQQjY2p-31" value="Vlan 10" style="text;strokeColor=none;fillColor=none;align=left;verticalAlign=middle;spacingLeft=4;spacingRight=4;overflow=hidden;points=[[0,0.5],[1,0.5]];portConstraint=eastwest;rotatable=0;fontSize=20;" parent="1" vertex="1">
                    <mxGeometry x="40" y="450" width="80" height="30" as="geometry"/>
                </mxCell>
                <mxCell id="410AewlM3kjC0YQQjY2p-32" value="Vlan 10" style="text;strokeColor=none;fillColor=none;align=left;verticalAlign=middle;spacingLeft=4;spacingRight=4;overflow=hidden;points=[[0,0.5],[1,0.5]];portConstraint=eastwest;rotatable=0;fontSize=20;" parent="1" vertex="1">
                    <mxGeometry x="40" y="594.5" width="80" height="30" as="geometry"/>
                </mxCell>
                <mxCell id="410AewlM3kjC0YQQjY2p-33" value="Vlan 10" style="text;strokeColor=none;fillColor=none;align=left;verticalAlign=middle;spacingLeft=4;spacingRight=4;overflow=hidden;points=[[0,0.5],[1,0.5]];portConstraint=eastwest;rotatable=0;fontSize=20;" parent="1" vertex="1">
                    <mxGeometry x="680" y="624.5" width="80" height="30" as="geometry"/>
                </mxCell>
                <mxCell id="410AewlM3kjC0YQQjY2p-34" value="Vlan 10" style="text;strokeColor=none;fillColor=none;align=left;verticalAlign=middle;spacingLeft=4;spacingRight=4;overflow=hidden;points=[[0,0.5],[1,0.5]];portConstraint=eastwest;rotatable=0;fontSize=20;" parent="1" vertex="1">
                    <mxGeometry x="680" y="450" width="80" height="30" as="geometry"/>
                </mxCell>
                <mxCell id="3" value="Vlan 10" style="text;strokeColor=none;fillColor=none;align=left;verticalAlign=middle;spacingLeft=4;spacingRight=4;overflow=hidden;points=[[0,0.5],[1,0.5]];portConstraint=eastwest;rotatable=0;fontSize=20;" parent="1" vertex="1">
                    <mxGeometry x="340" y="705" width="80" height="30" as="geometry"/>
                </mxCell>
                <mxCell id="5" value="Vlan 10" style="text;strokeColor=none;fillColor=none;align=left;verticalAlign=middle;spacingLeft=4;spacingRight=4;overflow=hidden;points=[[0,0.5],[1,0.5]];portConstraint=eastwest;rotatable=0;fontSize=20;" parent="1" vertex="1">
                    <mxGeometry x="980" y="720" width="80" height="30" as="geometry"/>
                </mxCell>
                <mxCell id="8" value="TTL" style="text;strokeColor=none;fillColor=none;align=left;verticalAlign=middle;spacingLeft=4;spacingRight=4;overflow=hidden;points=[[0,0.5],[1,0.5]];portConstraint=eastwest;rotatable=0;fontSize=20;" parent="1" vertex="1">
                    <mxGeometry x="840" y="140" width="80" height="30" as="geometry"/>
                </mxCell>
                <mxCell id="9" value="TTL" style="text;strokeColor=none;fillColor=none;align=left;verticalAlign=middle;spacingLeft=4;spacingRight=4;overflow=hidden;points=[[0,0.5],[1,0.5]];portConstraint=eastwest;rotatable=0;fontSize=20;" parent="1" vertex="1">
                    <mxGeometry x="280" y="170" width="80" height="30" as="geometry"/>
                </mxCell>
            </root>
        </mxGraphModel>
    </diagram>
</mxfile>